<?xml version="1.0" encoding="iso-8859-1"?>
<!-- Uploaded to: SVG Repo, www.svgrepo.com, Generator: SVG Repo Mixer Tools -->
<svg fill="#000000" height="800px" width="800px" version="1.1" id="Layer_1" xmlns="http://www.w3.org/2000/svg" xmlns:xlink="http://www.w3.org/1999/xlink" 
	 viewBox="0 0 512 512" xml:space="preserve">
<g>
	<g>
		<path d="M421.537,0h-30.685H238.466H90.463C68.157,0,50.01,18.147,50.01,40.453v431.093C50.01,493.853,68.157,512,90.463,512
			h331.073c22.306,0,40.453-18.147,40.453-40.453V40.453C461.99,18.147,443.843,0,421.537,0z M283.414,44.948h62.49v86.516
			l-15.122-10.176c-4.896-3.292-10.509-4.94-16.121-4.94c-5.614,0-11.229,1.648-16.129,4.944l-15.118,10.172V44.948z
			 M417.042,467.052H94.958V347.995h322.084V467.052z M417.042,303.047L417.042,303.047H94.958V44.948h143.508v116.681
			c0,10.702,5.869,20.472,15.314,25.502c4.269,2.271,8.931,3.397,13.579,3.397c5.64,0,11.258-1.656,16.123-4.931l31.178-20.979
			l31.175,20.977c8.877,5.977,20.258,6.565,29.705,1.536c9.447-5.03,15.314-14.8,15.314-25.502V44.948h26.19V303.047z"/>
	</g>
</g>
</svg>